<?xml version="1.0" encoding="UTF-8" standalone="no"?>
<svg xmlns="http://www.w3.org/2000/svg" viewBox="0 0 500 500">
  <g transform="translate(250, 250)">
    <!-- Outer text circle -->
    <path id="textCircle" fill="none" d="M0,170 a170,170 0 1,1 0,-340 a170,170 0 1,1 0,340" />
    
    <!-- Text on the circle -->
    <text font-family="Arial" font-size="24" font-weight="bold">
      <textPath href="#textCircle" startOffset="0%">
        SMK Mitra Industri MM2100
      </textPath>
      <textPath href="#textCircle" startOffset="50%">
        Kabupaten Bekasi
      </textPath>
    </text>
    
    <!-- Gear shape -->
    <path fill="#1a237e" stroke="#e53935" stroke-width="3" d="M0,-100 L20,-95 L35,-85 L45,-70 L50,-50 L50,-30 L70,-30 L85,-20 L95,-5 L100,15 L95,35 L85,50 L70,60 L50,60 L50,80 L45,95 L35,110 L20,120 L0,125 L-20,120 L-35,110 L-45,95 L-50,80 L-50,60 L-70,60 L-85,50 L-95,35 L-100,15 L-95,-5 L-85,-20 L-70,-30 L-50,-30 L-50,-50 L-45,-70 L-35,-85 L-20,-95 Z" />
    
    <!-- Center circle -->
    <circle cx="0" cy="0" r="60" fill="white" />
    
    <!-- Stylized person figure -->
    <path d="M0,-30 C-20,-30 -30,-10 -30,10 C-30,30 -20,40 0,40 C20,40 30,30 30,10 C30,-10 20,-30 0,-30 Z" fill="black" />
    <circle cx="0" cy="-15" r="10" fill="black" />
    
    <!-- Red star -->
    <path fill="#e53935" d="M60,0 L65,20 L85,20 L70,35 L75,55 L60,45 L45,55 L50,35 L35,20 L55,20 Z" />
    
    <!-- Dots -->
    <circle cx="-170" cy="0" r="5" fill="black" />
    <circle cx="170" cy="0" r="5" fill="black" />
  </g>
</svg>
